<svg xmlns:xlink="http://www.w3.org/1999/xlink" version="1.1" width="609" height="126" viewBox="0 0 609 126" fill="none" xmlns="http://www.w3.org/2000/svg">
<path d="M60 109C53.4224 109 46.911 107.715 40.8386 105.221C34.7662 102.727 29.2542 99.0728 24.615 94.4723C19.976 89.8719 16.3006 84.4151 13.7946 78.4154C11.2887 72.416 10 65.9888 10 59.5C10 53.0112 11.2887 46.584 13.7946 40.5846C16.3006 34.5849 19.976 29.1281 24.615 24.5277C29.2542 19.9272 34.7662 16.2735 40.8386 13.7792C46.911 11.2849 53.4223 10 60 10" stroke="black" stroke-width="20"/>
<line x1="60" y1="10" x2="95" y2="10" stroke="black" stroke-width="20"/>
<line x1="60" y1="109" x2="95" y2="109" stroke="black" stroke-width="20"/>
<path d="M165 10C171.578 10 178.089 11.2849 184.161 13.7792C190.234 16.2735 195.746 19.9272 200.385 24.5277C205.024 29.1281 208.699 34.5849 211.205 40.5846C213.711 46.584 215 53.0112 215 59.5C215 65.9888 213.711 72.416 211.205 78.4154C208.699 84.4151 205.024 89.8719 200.385 94.4723C195.746 99.0728 190.234 102.727 184.161 105.221C178.089 107.715 171.578 109 165 109" stroke="black" stroke-width="20"/>
<line x1="165" y1="109" x2="130" y2="109" stroke="black" stroke-width="20"/>
<line x1="162" y1="61" x2="63" y2="61" stroke="black" stroke-width="20"/>
<path d="M450 109C443.422 109 436.911 107.715 430.839 105.221C424.766 102.727 419.254 99.0728 414.615 94.4723C409.976 89.8719 406.301 84.4151 403.795 78.4154C401.289 72.416 400 65.9888 400 59.5C400 53.0112 401.289 46.584 403.795 40.5846C406.301 34.5849 409.976 29.1281 414.615 24.5277C419.254 19.9272 424.766 16.2735 430.839 13.7792C436.911 11.2849 443.422 10 450 10" stroke="black" stroke-width="20"/>
<line x1="450" y1="10" x2="485" y2="10" stroke="black" stroke-width="20"/>
<line x1="450" y1="109" x2="485" y2="109" stroke="black" stroke-width="20"/>
<line x1="552" y1="61" x2="453" y2="61" stroke="black" stroke-width="20"/>
<line x1="601.071" y1="7.07107" x2="544.071" y2="64.0711" stroke="black" stroke-width="20"/>
<line x1="601.929" y1="118.071" x2="544.929" y2="61.0711" stroke="black" stroke-width="20"/>
<line x1="165" y1="10" x2="130" y2="10" stroke="black" stroke-width="20"/>
<path d="M320 109C313.422 109 306.911 107.715 300.839 105.221C294.766 102.727 289.254 99.0728 284.615 94.4723C279.976 89.8719 276.301 84.4151 273.795 78.4154C271.289 72.416 270 65.9888 270 59.5C270 53.0112 271.289 46.584 273.795 40.5846C276.301 34.585 279.976 29.1281 284.615 24.5277C289.254 19.9272 294.766 16.2735 300.839 13.7792C306.911 11.2849 313.422 10 320 10" stroke="black" stroke-width="20"/>
<line x1="320" y1="10" x2="355" y2="10" stroke="black" stroke-width="20"/>
<line x1="274" y1="58" x2="337" y2="58" stroke="black" stroke-width="20"/>
<line x1="320" y1="109" x2="355" y2="109" stroke="black" stroke-width="20"/>
</svg>
